<?xml version="1.0" encoding="UTF-8" standalone="no"?>
<svg xmlns:ffdec="https://www.free-decompiler.com/flash" xmlns:xlink="http://www.w3.org/1999/xlink" ffdec:objectType="shape" height="65.2px" width="72.2px" xmlns="http://www.w3.org/2000/svg">
  <g transform="matrix(1.0, 0.0, 0.0, 1.0, 26.75, 65.3)">
    <path d="M22.5 -48.65 L21.35 -48.9 Q20.7 -49.05 20.1 -49.3 L20.05 -49.2 19.5 -49.15 18.1 -48.3 18.05 -48.2 20.55 -46.45 21.2 -47.25 21.5 -47.8 22.5 -48.65 M2.35 -54.3 L2.25 -54.35 2.35 -54.1 2.35 -54.3 M10.65 -64.25 L11.55 -63.85 12.4 -63.25 12.6 -63.05 12.8 -62.8 12.85 -62.65 12.95 -62.45 12.95 -62.35 13.25 -61.5 13.3 -61.3 13.35 -61.2 13.55 -60.6 13.6 -60.65 14.0 -60.55 13.9 -60.0 13.85 -59.8 14.1 -60.05 14.2 -60.1 Q14.4 -59.65 13.95 -59.45 L14.0 -59.3 14.85 -58.1 15.15 -55.65 13.65 -55.75 13.6 -54.8 13.55 -54.65 13.55 -54.55 13.55 -54.45 13.45 -53.4 11.4 -53.45 Q12.1 -52.9 12.15 -51.55 L11.85 -50.75 13.0 -49.0 15.55 -50.95 16.9 -50.95 17.1 -50.85 17.0 -50.95 18.2 -50.95 19.4 -51.1 20.5 -50.4 20.2 -49.5 21.65 -49.15 22.25 -49.0 22.35 -49.0 22.75 -48.85 Q24.25 -50.05 25.9 -50.9 L26.7 -50.8 26.75 -51.0 Q27.3 -52.2 28.35 -53.05 L28.5 -53.2 Q29.15 -52.55 28.05 -51.4 L27.5 -50.7 28.6 -50.5 28.9 -51.5 29.5 -53.2 29.5 -53.25 Q30.35 -52.2 29.7 -50.55 L31.65 -49.45 38.5 -41.1 38.0 -39.55 37.25 -39.9 37.15 -39.7 36.0 -37.3 32.95 -39.0 32.7 -40.45 29.0 -39.9 28.6 -39.15 26.05 -33.8 25.9 -33.5 42.95 -28.8 44.8 -26.0 44.95 -25.85 42.35 -25.2 24.7 -30.85 Q23.15 -27.85 22.0 -26.5 L21.05 -25.85 18.95 -20.25 18.85 -20.05 18.55 -11.5 18.5 -11.1 19.0 -4.1 19.2 -3.4 19.2 -3.25 19.55 -2.5 20.2 -0.8 20.1 -0.6 15.35 -0.7 15.15 -1.8 15.15 -1.85 15.15 -1.95 15.15 -2.05 15.8 -11.1 15.65 -11.65 14.15 -5.95 14.0 -4.85 13.95 -3.7 13.75 -3.75 9.7 -4.7 9.65 -4.95 10.0 -6.25 10.2 -7.1 12.1 -13.8 11.7 -14.95 10.6 -19.4 8.4 -18.95 7.4 -21.4 2.7 -22.2 Q-0.95 -24.65 -4.65 -26.4 L-6.2 -19.85 -9.25 -22.75 -10.9 -22.5 -14.7 -22.35 -15.2 -19.95 Q-15.9 -16.7 -15.55 -15.45 L-15.0 -13.5 -15.0 -11.95 -19.0 -14.15 -17.9 -22.25 -21.05 -22.2 -22.5 -12.55 -22.4 -11.9 -22.0 -11.1 -21.9 -10.5 -22.0 -8.7 -22.0 -8.65 -25.9 -10.55 -26.25 -10.95 -26.05 -12.75 -25.7 -13.85 -24.05 -25.05 -16.05 -27.55 -15.55 -28.4 -15.3 -29.15 Q-15.75 -35.15 -13.15 -40.1 L-17.25 -37.1 -21.5 -26.05 -21.15 -29.8 -24.3 -24.9 -22.75 -29.95 -25.8 -23.8 Q-26.35 -32.95 -22.4 -38.05 -16.5 -44.4 -10.2 -43.75 L-9.6 -43.3 -6.65 -44.75 -4.35 -43.7 -4.1 -44.7 -3.55 -44.6 -3.1 -48.45 -1.95 -48.5 -0.4 -50.95 -0.35 -51.15 -0.25 -51.2 -0.2 -51.2 Q-0.65 -51.55 -0.1 -52.6 -0.1 -53.7 2.0 -54.8 L2.7 -55.05 2.55 -56.0 2.1 -56.6 2.0 -56.85 1.95 -56.95 1.95 -57.05 1.85 -57.35 1.7 -57.8 1.75 -58.05 1.75 -58.1 1.9 -59.7 1.9 -59.9 1.95 -60.5 2.0 -60.65 2.0 -60.7 2.1 -61.5 2.15 -61.65 2.2 -61.7 2.25 -61.8 2.3 -61.95 2.35 -61.95 2.35 -62.0 2.75 -62.5 2.85 -62.65 2.9 -62.65 3.0 -62.8 3.1 -62.95 3.35 -63.15 3.45 -63.25 3.55 -63.4 3.7 -63.5 3.75 -63.6 3.85 -63.6 4.05 -63.8 4.15 -63.85 4.55 -64.05 4.65 -64.15 4.7 -64.15 5.1 -64.35 5.15 -64.35 5.55 -64.5 6.35 -64.7 6.65 -64.75 7.05 -64.75 7.5 -64.75 8.3 -64.65 8.4 -64.65 8.5 -64.65 9.3 -64.55 9.5 -64.55 10.3 -64.35 10.65 -64.25 M18.1 -47.0 L17.05 -46.85 16.8 -46.55 14.95 -45.2 12.45 -44.7 11.9 -45.35 10.8 -45.6 9.4 -47.45 9.05 -48.65 6.85 -44.15 9.2 -42.75 Q15.6 -44.0 15.8 -44.2 L15.1 -42.45 Q17.65 -45.35 19.95 -46.3 L18.05 -47.7 18.1 -47.0 M-7.1 -22.35 Q-6.0 -22.75 -7.15 -23.3 -7.85 -23.35 -7.65 -22.65 -7.5 -22.2 -7.1 -22.35 M-5.75 -25.9 L-5.2 -26.3 -5.6 -26.25 -5.85 -25.9 -5.75 -25.9 M-5.9 -43.2 L-5.7 -43.2 -4.95 -43.1 -5.4 -43.5 Q-5.85 -43.55 -5.9 -43.2 M20.15 -46.1 L20.1 -45.95 20.25 -46.05 20.15 -46.1" fill="#9f9f9f" fill-rule="evenodd" stroke="none"/>
    <path d="M10.65 -64.25 L10.3 -64.35 9.5 -64.55 9.3 -64.55 8.5 -64.65 8.4 -64.65 8.3 -64.65 7.5 -64.75 7.05 -64.75 6.65 -64.75 6.35 -64.7 5.55 -64.5 5.15 -64.35 5.1 -64.35 4.7 -64.15 4.65 -64.15 4.55 -64.05 4.15 -63.85 4.05 -63.8 3.85 -63.6 3.75 -63.6 3.7 -63.5 3.55 -63.4 3.45 -63.25 3.35 -63.15 3.1 -62.95 3.0 -62.8 2.9 -62.65 2.85 -62.65 2.75 -62.5 2.35 -62.0 2.35 -61.95 2.3 -61.95 2.25 -61.8 2.2 -61.7 2.15 -61.65 2.1 -61.5 2.0 -60.7 2.0 -60.65 1.95 -60.5 1.9 -59.9 1.9 -59.7 1.75 -58.1 1.75 -58.05 1.7 -57.8 1.85 -57.35 1.95 -57.05 1.95 -56.95 2.0 -56.85 2.1 -56.6 2.55 -56.0 2.7 -55.05 2.0 -54.8 Q-0.1 -53.7 -0.1 -52.6 -0.65 -51.55 -0.2 -51.2 L-0.25 -51.2 -0.35 -51.15 -0.4 -50.95 -1.95 -48.5 -3.1 -48.45 -3.55 -44.6 -4.1 -44.7 -4.35 -43.7 -6.65 -44.75 -9.6 -43.3 -10.2 -43.75 Q-16.5 -44.4 -22.4 -38.05 -26.35 -32.95 -25.8 -23.8 L-22.75 -29.95 -24.3 -24.9 -21.15 -29.8 -21.5 -26.05 -17.25 -37.1 -13.15 -40.1 Q-15.75 -35.15 -15.3 -29.15 L-15.55 -28.4 -16.05 -27.55 -24.05 -25.05 -25.7 -13.85 -26.05 -12.75 -26.25 -10.95 -25.9 -10.55 -22.0 -8.65 -22.0 -8.7 -21.9 -10.5 -22.0 -11.1 -22.4 -11.9 -22.5 -12.55 -21.05 -22.2 -17.9 -22.25 -19.0 -14.15 -15.0 -11.95 -15.0 -13.5 -15.55 -15.45 Q-15.9 -16.7 -15.2 -19.95 L-14.7 -22.35 -10.9 -22.5 -9.25 -22.75 -6.2 -19.85 -4.65 -26.4 Q-0.95 -24.65 2.7 -22.2 L7.4 -21.4 8.4 -18.95 10.6 -19.4 11.7 -14.95 12.1 -13.8 10.2 -7.1 10.0 -6.25 9.65 -4.95 9.7 -4.7 13.75 -3.75 13.95 -3.7 14.0 -4.85 14.15 -5.95 15.65 -11.65 15.8 -11.1 15.15 -2.05 15.15 -1.95 15.15 -1.85 15.15 -1.8 15.35 -0.7 20.1 -0.6 20.2 -0.8 19.55 -2.5 19.2 -3.25 19.2 -3.4 19.0 -4.1 18.5 -11.1 18.55 -11.5 18.85 -20.05 18.95 -20.25 21.05 -25.85 22.0 -26.5 Q23.15 -27.85 24.7 -30.85 L42.35 -25.2 44.95 -25.85 44.8 -26.0 42.95 -28.8 25.9 -33.5 26.05 -33.8 28.6 -39.15 29.0 -39.9 32.7 -40.45 32.95 -39.0 36.0 -37.3 37.15 -39.7 37.25 -39.9 38.0 -39.55 38.5 -41.1 31.65 -49.45 29.7 -50.55 Q30.35 -52.2 29.5 -53.25 L29.5 -53.2 28.9 -51.5 28.6 -50.5 27.5 -50.7 28.05 -51.4 Q29.15 -52.55 28.5 -53.2 L28.35 -53.05 Q27.3 -52.2 26.75 -51.0 L26.7 -50.8 25.9 -50.9 Q24.25 -50.05 22.75 -48.85 L22.35 -49.0 22.25 -49.0 21.65 -49.15 20.2 -49.5 20.5 -50.4 19.4 -51.1 18.2 -50.95 17.0 -50.95 17.1 -50.85 16.9 -50.95 15.55 -50.95 13.0 -49.0 11.85 -50.75 12.15 -51.55 Q12.1 -52.9 11.4 -53.45 L13.45 -53.4 13.55 -54.45 13.55 -54.55 13.55 -54.65 13.6 -54.8 13.65 -55.75 15.15 -55.65 14.85 -58.1 14.0 -59.3 13.95 -59.45 Q14.4 -59.65 14.2 -60.1 L14.1 -60.05 13.85 -59.8 13.9 -60.0 14.0 -60.55 13.6 -60.65 13.55 -60.6 13.35 -61.2 13.3 -61.3 13.25 -61.5 12.95 -62.35 12.95 -62.45 12.85 -62.65 12.8 -62.8 12.6 -63.05 12.4 -63.25 11.55 -63.85 10.65 -64.25 M2.35 -54.3 L2.35 -54.1 2.25 -54.35 2.35 -54.3 M22.5 -48.65 L21.5 -47.8 21.2 -47.25 20.55 -46.45 18.05 -48.2 18.1 -48.3 19.5 -49.15 20.05 -49.2 20.1 -49.3 Q20.7 -49.05 21.35 -48.9 L22.5 -48.65 M18.1 -47.0 L17.05 -46.85 16.8 -46.55 14.95 -45.2 12.45 -44.7 11.9 -45.35 10.8 -45.6 9.4 -47.45 9.05 -48.65 6.85 -44.15 9.2 -42.75 Q15.6 -44.0 15.8 -44.2 L15.1 -42.45 Q17.65 -45.35 19.95 -46.3 L18.05 -47.7 18.1 -47.0 M20.15 -46.1 L20.25 -46.05 20.1 -45.95 20.15 -46.1 M-5.9 -43.2 Q-5.85 -43.55 -5.4 -43.5 L-4.95 -43.1 -5.7 -43.2 -5.9 -43.2 M-5.75 -25.9 L-5.85 -25.9 -5.6 -26.25 -5.2 -26.3 -5.75 -25.9 M-7.1 -22.35 Q-7.5 -22.2 -7.65 -22.65 -7.85 -23.35 -7.15 -23.3 -6.0 -22.75 -7.1 -22.35 Z" fill="none" stroke="#000000" stroke-linecap="round" stroke-linejoin="round" stroke-width="1.0"/>
    <path d="M22.75 -32.65 L22.75 -32.5 18.65 -22.25 18.65 -22.2 16.15 -13.55 14.15 -5.95 14.0 -4.85 13.95 -3.7 13.75 -3.75 9.7 -4.7 9.65 -4.95 10.0 -6.25 10.2 -7.1 12.1 -13.8 11.7 -14.95 9.3 -24.4 13.75 -31.45 14.3 -31.9 19.65 -32.55 19.9 -32.55 22.75 -32.65" fill="#433e36" fill-rule="evenodd" stroke="none"/>
    <path d="M3.5 -33.2 Q1.0 -28.95 -3.5 -26.6 L-14.25 -24.85 -15.2 -19.95 Q-15.9 -16.7 -15.55 -15.45 L-15.0 -13.5 -15.0 -11.95 -19.0 -14.15 -17.4 -26.3 -8.95 -32.7 -4.8 -39.35 1.6 -41.15 3.5 -33.2" fill="#433e36" fill-rule="evenodd" stroke="none"/>
  </g>
</svg>
