<?xml version="1.0" encoding="UTF-8" standalone="no"?>
<svg xmlns:ffdec="https://www.free-decompiler.com/flash" xmlns:xlink="http://www.w3.org/1999/xlink" ffdec:objectType="shape" height="54.65px" width="71.7px" xmlns="http://www.w3.org/2000/svg">
  <g transform="matrix(1.0, 0.0, 0.0, 1.0, 39.5, 51.45)">
    <path d="M-1.95 -47.45 L-1.25 -46.75 -0.95 -46.6 Q4.45 -43.6 5.7 -43.2 9.35 -42.05 17.25 -42.0 23.85 -42.0 27.5 -39.0 30.0 -36.95 31.25 -33.2 32.0 -30.9 31.55 -21.75 L31.0 -13.6 30.55 -13.0 30.1 -12.55 Q29.9 -12.55 29.8 -12.7 L29.7 -12.85 29.65 -12.8 Q29.7 -10.45 29.1 -10.45 28.65 -10.45 28.65 -11.4 L28.65 -12.4 28.2 -11.7 28.2 -11.65 28.3 -8.35 28.45 -3.6 28.0 -1.0 27.6 0.35 27.15 2.05 22.65 2.2 21.15 2.3 18.65 2.35 18.45 2.3 18.4 2.3 18.8 1.6 19.35 0.35 19.3 0.35 19.8 -0.45 19.7 -0.45 20.05 -1.4 20.6 -2.6 20.95 -5.2 21.1 -7.8 21.15 -8.4 21.05 -8.45 21.05 -8.4 20.75 -6.5 20.05 -3.45 20.0 -3.3 19.65 -2.2 Q19.5 -1.8 18.95 -1.75 L14.65 -0.7 14.45 -0.65 10.85 -0.15 11.55 -2.0 11.65 -2.4 Q12.35 -4.8 12.45 -6.8 L12.35 -8.45 12.25 -9.25 12.2 -9.7 11.65 -9.3 Q11.45 -9.3 11.25 -10.1 L10.9 -11.05 Q10.7 -10.9 10.45 -10.2 L10.05 -9.6 9.8 -9.85 9.6 -10.35 9.3 -11.35 9.2 -11.4 8.85 -10.15 8.55 -9.4 8.2 -10.65 7.65 -11.8 Q7.4 -11.8 7.15 -10.8 L6.85 -9.8 6.75 -9.8 5.9 -12.15 Q5.7 -12.0 5.4 -11.1 L4.95 -10.0 4.0 -12.0 3.2 -9.5 3.15 -9.5 Q2.85 -9.8 2.7 -10.6 2.55 -11.4 2.25 -11.6 2.05 -11.35 1.9 -10.0 L1.9 -9.85 1.6 -10.4 0.85 -11.1 0.4 -9.7 -0.1 -10.85 -0.6 -9.75 -0.75 -10.0 -0.95 -10.6 -0.95 -10.65 -1.95 -8.9 -1.95 -10.6 -2.0 -10.55 -2.85 -8.4 -2.9 -8.5 -3.3 -8.95 -3.55 -8.6 -3.2 -7.6 Q-1.9 -2.2 -1.85 -1.2 L-1.5 -0.35 -1.35 0.3 -10.3 0.35 -10.3 -0.35 -10.4 -1.35 -10.75 -4.1 -10.9 -4.95 -11.15 -5.45 -11.35 -5.0 -11.55 -5.55 -11.85 -6.4 -12.6 -4.9 -12.65 -5.05 -13.05 -6.35 Q-13.3 -6.35 -13.95 -5.1 L-14.15 -4.65 -14.35 -5.25 -14.95 -2.1 -15.45 0.4 -15.45 2.45 -22.3 2.7 -24.95 2.7 -24.4 1.05 -24.45 1.05 -24.15 0.5 -24.0 0.2 -23.65 -0.6 -23.1 -2.25 -22.8 -3.0 -22.55 -4.6 -22.35 -5.75 -22.15 -6.75 -21.95 -8.25 -21.95 -8.4 -21.95 -8.45 -22.4 -7.0 -22.55 -7.1 Q-22.55 -7.5 -23.1 -9.15 L-23.2 -8.95 -23.7 -8.2 Q-24.05 -8.2 -24.3 -9.2 L-24.75 -10.8 -24.85 -9.95 Q-24.9 -9.45 -25.1 -9.45 -25.55 -9.65 -25.85 -10.6 L-26.15 -11.9 -26.5 -12.4 Q-26.95 -11.05 -27.15 -11.05 L-27.45 -11.65 -28.0 -13.35 -28.2 -12.85 -28.45 -12.25 -28.8 -13.25 -28.95 -14.05 Q-29.3 -13.05 -29.9 -12.55 L-30.0 -12.85 -30.35 -12.7 Q-31.3 -12.3 -32.15 -12.2 L-35.25 -12.3 Q-37.55 -12.55 -38.8 -13.2 L-39.0 -14.2 Q-39.1 -16.35 -38.3 -22.3 L-37.65 -26.55 Q-37.75 -26.5 -37.95 -26.4 L-38.2 -26.95 -38.35 -28.5 Q-38.35 -30.0 -37.75 -31.05 -37.05 -32.4 -35.4 -33.5 L-35.25 -33.4 -35.1 -33.65 Q-24.45 -51.6 -10.35 -50.9 -6.5 -50.75 -3.6 -48.7 L-1.95 -47.45 M19.4 0.25 L19.35 0.35 19.45 0.35 19.5 0.15 19.4 0.25 M-31.5 -21.6 Q-30.95 -21.1 -30.5 -21.1 L-30.35 -21.1 -29.55 -21.6 Q-29.15 -22.1 -29.1 -23.05 -29.15 -22.1 -29.55 -21.6 L-30.35 -21.1 -30.5 -21.1 Q-30.95 -21.1 -31.5 -21.6" fill="#878787" fill-rule="evenodd" stroke="none"/>
    <path d="M-1.95 -47.45 L-1.25 -46.75 -0.95 -46.6 Q4.45 -43.6 5.7 -43.2 9.35 -42.05 17.25 -42.0 23.85 -42.0 27.5 -39.0 30.0 -36.95 31.25 -33.2 32.0 -30.9 31.55 -21.75 L31.0 -13.6 30.55 -13.0 30.1 -12.55 Q29.9 -12.55 29.8 -12.7 L29.7 -12.85 29.65 -12.8 Q29.7 -10.45 29.1 -10.45 28.65 -10.45 28.65 -11.4 L28.65 -12.4 28.2 -11.7 28.2 -11.65 28.3 -8.35 28.45 -3.6 28.0 -1.0 27.6 0.35 27.15 2.05 22.65 2.2 21.15 2.3 18.65 2.35 18.45 2.3 18.4 2.3 18.8 1.6 19.35 0.35 19.3 0.35 19.8 -0.45 19.7 -0.45 20.05 -1.4 20.6 -2.6 20.95 -5.2 21.1 -7.8 21.15 -8.4 21.05 -8.45 21.05 -8.4 20.75 -6.5 20.05 -3.45 20.0 -3.3 19.65 -2.2 Q19.5 -1.8 18.95 -1.75 L14.65 -0.7 14.45 -0.65 10.85 -0.15 11.55 -2.0 11.65 -2.4 Q12.35 -4.8 12.45 -6.8 L12.35 -8.45 12.25 -9.25 12.2 -9.7 11.65 -9.3 Q11.45 -9.3 11.25 -10.1 L10.9 -11.05 Q10.7 -10.9 10.45 -10.2 L10.05 -9.6 9.8 -9.85 9.6 -10.35 9.3 -11.35 9.2 -11.4 8.85 -10.15 8.55 -9.4 8.2 -10.65 7.65 -11.8 Q7.4 -11.8 7.15 -10.8 L6.85 -9.8 6.75 -9.8 5.9 -12.15 Q5.7 -12.0 5.4 -11.1 L4.95 -10.0 4.0 -12.0 3.2 -9.5 3.15 -9.5 Q2.85 -9.8 2.7 -10.6 2.55 -11.4 2.25 -11.6 2.05 -11.35 1.9 -10.0 L1.9 -9.85 1.6 -10.4 0.85 -11.1 0.4 -9.7 -0.1 -10.85 -0.6 -9.75 -0.75 -10.0 -0.95 -10.6 -0.95 -10.65 -1.95 -8.9 -1.95 -10.6 -2.0 -10.55 -2.85 -8.4 -2.9 -8.5 -3.3 -8.95 -3.55 -8.6 -3.2 -7.6 Q-1.9 -2.2 -1.85 -1.2 L-1.5 -0.35 -1.35 0.3 -10.3 0.35 -10.3 -0.35 -10.4 -1.35 -10.75 -4.1 -10.9 -4.95 -11.15 -5.45 -11.35 -5.0 -11.55 -5.55 -11.85 -6.4 -12.6 -4.9 -12.65 -5.05 -13.05 -6.35 Q-13.3 -6.35 -13.95 -5.1 L-14.15 -4.65 -14.35 -5.25 -14.95 -2.1 -15.45 0.4 -15.45 2.45 -22.3 2.7 -24.95 2.7 -24.4 1.05 -24.45 1.05 -24.15 0.5 -24.0 0.2 -23.65 -0.6 -23.1 -2.25 -22.8 -3.0 -22.55 -4.6 -22.35 -5.75 -22.15 -6.75 -21.95 -8.25 -21.95 -8.4 -21.95 -8.45 -22.4 -7.0 -22.55 -7.1 Q-22.55 -7.5 -23.1 -9.15 L-23.2 -8.95 -23.7 -8.2 Q-24.05 -8.2 -24.3 -9.2 L-24.75 -10.8 -24.85 -9.95 Q-24.9 -9.45 -25.1 -9.45 -25.55 -9.65 -25.85 -10.6 L-26.15 -11.9 -26.5 -12.4 Q-26.95 -11.05 -27.15 -11.05 L-27.45 -11.65 -28.0 -13.35 -28.2 -12.85 -28.45 -12.25 -28.8 -13.25 -28.95 -14.05 Q-29.3 -13.05 -29.9 -12.55 L-30.0 -12.85 -30.35 -12.7 Q-31.3 -12.3 -32.15 -12.2 L-35.25 -12.3 Q-37.55 -12.55 -38.8 -13.2 L-39.0 -14.2 Q-39.1 -16.35 -38.3 -22.3 L-37.65 -26.55 Q-37.75 -26.5 -37.95 -26.4 L-38.2 -26.95 -38.35 -28.5 Q-38.35 -30.0 -37.75 -31.05 -37.05 -32.4 -35.4 -33.5 L-35.25 -33.4 -35.1 -33.65 Q-24.45 -51.6 -10.35 -50.9 -6.5 -50.75 -3.6 -48.7 L-1.95 -47.45 M19.4 0.25 L19.35 0.35 19.45 0.35 19.5 0.15 19.4 0.25 M-29.1 -23.05 Q-29.15 -22.1 -29.55 -21.6 L-30.35 -21.1 -30.5 -21.1 Q-30.95 -21.1 -31.5 -21.6" fill="none" stroke="#000000" stroke-linecap="round" stroke-linejoin="round" stroke-width="1.0"/>
  </g>
</svg>
