<?xml version="1.0" encoding="UTF-8" standalone="no"?>
<svg xmlns:ffdec="https://www.free-decompiler.com/flash" xmlns:xlink="http://www.w3.org/1999/xlink" ffdec:objectType="shape" height="52.65px" width="38.65px" xmlns="http://www.w3.org/2000/svg">
  <g transform="matrix(1.0, 0.0, 0.0, 1.0, 13.2, 50.3)">
    <path d="M23.95 -25.25 L24.1 -25.2 23.75 -17.3 24.95 -16.9 24.8 -10.75 23.0 -10.15 23.15 -3.2 20.55 -2.25 20.45 -2.25 19.5 -3.05 19.6 -1.9 15.75 -0.85 15.7 -0.9 15.0 -1.5 15.1 -0.6 11.3 0.35 10.4 -0.2 10.25 0.7 5.7 1.85 5.65 1.85 5.35 1.55 5.15 1.75 4.5 0.8 2.95 1.7 3.7 0.2 1.9 1.1 2.65 0.0 1.1 0.0 1.55 -1.2 2.7 -0.8 4.05 -2.1 4.0 -3.75 3.65 -4.25 3.5 -4.4 3.35 -4.55 3.35 -5.45 3.2 -6.0 1.55 -3.25 1.25 -5.8 0.15 -3.8 1.05 -1.7 Q-1.75 -0.2 -4.55 -0.8 L-6.4 0.7 -6.75 -0.35 -8.6 0.45 -7.35 -1.0 -9.4 -0.25 -8.35 -1.3 -9.85 -1.4 -9.05 -2.55 -8.1 -2.1 -5.55 -3.85 -6.0 -5.4 -6.25 -5.85 -6.05 -7.9 -7.15 -7.3 -6.0 -8.65 -5.95 -9.0 -7.35 -8.7 -6.0 -11.2 -5.3 -11.5 -5.5 -11.85 Q-5.7 -12.45 -5.55 -13.1 -5.5 -16.05 -3.85 -18.05 L-4.15 -20.2 -4.0 -21.15 -4.5 -21.2 -5.15 -21.15 -5.25 -21.15 -5.8 -21.4 -7.25 -22.6 -7.2 -22.6 -7.45 -22.7 -8.15 -23.45 -9.65 -21.9 -11.5 -22.15 -12.7 -23.9 -9.75 -26.6 -9.85 -26.9 -9.15 -27.35 -9.35 -27.55 -8.9 -28.7 -8.7 -28.7 -8.15 -29.95 -7.85 -30.2 -8.45 -30.95 -8.05 -32.2 -7.25 -33.3 -5.25 -31.95 -3.75 -33.4 -2.1 -32.95 -2.45 -34.5 -0.7 -36.2 0.3 -35.85 -0.15 -36.8 0.15 -37.15 Q-0.05 -37.6 0.4 -37.8 L0.5 -37.85 0.3 -37.35 1.2 -38.2 3.7 -40.1 4.7 -39.9 5.05 -40.9 4.2 -41.45 7.15 -43.0 7.8 -44.45 8.7 -44.35 9.25 -45.5 12.15 -46.7 12.05 -47.45 15.15 -49.8 13.3 -45.35 12.75 -45.4 11.75 -41.35 10.25 -39.8 9.5 -39.45 9.6 -39.4 9.35 -39.3 9.15 -39.15 Q9.0 -39.0 8.9 -39.15 L7.35 -38.4 7.3 -37.2 5.9 -35.85 5.7 -35.7 2.4 -32.65 2.25 -32.6 2.2 -32.65 0.75 -32.2 0.4 -31.85 5.4 -31.7 5.6 -31.65 6.6 -33.5 Q7.0 -34.0 7.35 -33.4 7.75 -32.75 7.75 -31.15 L8.25 -31.05 Q9.15 -30.1 8.9 -27.85 L9.0 -27.4 9.3 -28.45 Q10.7 -29.4 11.3 -31.05 L11.85 -26.4 12.05 -25.35 12.2 -25.4 14.4 -24.6 14.5 -25.0 17.9 -25.3 18.1 -24.2 18.55 -25.45 21.05 -26.0 23.95 -25.25" fill="#6d6d6d" fill-rule="evenodd" stroke="none"/>
    <path d="M23.95 -25.25 L21.05 -26.0 18.55 -25.45 18.1 -24.2 17.9 -25.3 14.5 -25.0 14.4 -24.6 12.2 -25.4 12.05 -25.35 11.85 -26.4 11.3 -31.05 Q10.7 -29.4 9.3 -28.45 L9.0 -27.4 8.9 -27.85 Q9.15 -30.1 8.25 -31.05 L7.75 -31.15 Q7.75 -32.75 7.35 -33.4 7.0 -34.0 6.6 -33.5 L5.6 -31.65 5.4 -31.7 0.4 -31.85 0.75 -32.2 2.2 -32.65 2.25 -32.6 2.4 -32.65 5.7 -35.7 5.9 -35.85 7.3 -37.2 7.35 -38.4 8.9 -39.15 Q9.0 -39.0 9.15 -39.15 L9.35 -39.3 9.6 -39.4 9.5 -39.45 10.25 -39.8 11.75 -41.35 12.75 -45.4 13.3 -45.35 15.15 -49.8 12.05 -47.45 12.15 -46.7 9.25 -45.5 8.7 -44.35 7.8 -44.45 7.15 -43.0 4.2 -41.45 5.05 -40.9 4.7 -39.9 3.7 -40.1 1.2 -38.2 0.3 -37.35 0.5 -37.85 0.4 -37.8 Q-0.05 -37.6 0.15 -37.15 L-0.15 -36.8 0.3 -35.85 -0.7 -36.2 -2.45 -34.5 -2.1 -32.95 -3.75 -33.4 -5.25 -31.95 -7.25 -33.3 -8.05 -32.2 -8.45 -30.95 -7.85 -30.2 -8.15 -29.95 -8.7 -28.7 -8.9 -28.7 -9.35 -27.55 -9.15 -27.35 -9.85 -26.9 -9.75 -26.6 -12.7 -23.9 -11.5 -22.15 -9.65 -21.9 -8.15 -23.45 -7.45 -22.7 -7.2 -22.6 -7.25 -22.6 -5.8 -21.4 -5.25 -21.15 -5.15 -21.15 -4.5 -21.2 -4.0 -21.15 -4.15 -20.2 -3.85 -18.05 Q-5.5 -16.05 -5.55 -13.1 -5.7 -12.45 -5.5 -11.85 L-5.3 -11.5 -6.0 -11.2 -7.35 -8.7 -5.95 -9.0 -6.0 -8.65 -7.15 -7.3 -6.05 -7.9 -6.25 -5.85 -6.0 -5.4 -5.55 -3.85 -8.1 -2.1 -9.05 -2.55 -9.85 -1.4 -8.35 -1.3 -9.4 -0.25 -7.35 -1.0 -8.6 0.45 -6.75 -0.35 -6.4 0.7 -4.55 -0.8 Q-1.75 -0.2 1.05 -1.7 L0.15 -3.8 1.25 -5.8 1.55 -3.25 3.2 -6.0 3.35 -5.45 3.35 -4.55 3.5 -4.4 3.65 -4.25 4.0 -3.75 4.05 -2.1 2.7 -0.8 1.55 -1.2 1.1 0.0 2.65 0.0 1.9 1.1 3.7 0.2 2.95 1.7 4.5 0.8 5.15 1.75 5.35 1.55 5.65 1.85 5.7 1.85 10.25 0.7 10.4 -0.2 11.3 0.35 15.1 -0.6 15.0 -1.5 15.7 -0.9 15.75 -0.85 19.6 -1.9 19.5 -3.05 20.45 -2.25 20.55 -2.25 23.15 -3.2 23.0 -10.15 24.8 -10.75 24.95 -16.9 23.75 -17.3 24.1 -25.2 23.95 -25.25 Z" fill="none" stroke="#000000" stroke-linecap="round" stroke-linejoin="round" stroke-width="1.0"/>
  </g>
</svg>
