<?xml version="1.0" encoding="UTF-8" standalone="no"?>
<svg xmlns:ffdec="https://www.free-decompiler.com/flash" xmlns:xlink="http://www.w3.org/1999/xlink" ffdec:objectType="shape" height="147.2px" width="296.4px" xmlns="http://www.w3.org/2000/svg">
  <g transform="matrix(1.0, 0.0, 0.0, 1.0, 101.4, 160.2)">
    <path d="M18.45 -159.45 L107.6 -159.45 107.6 -160.2 193.3 -160.2 193.3 -114.35 195.0 -112.85 193.3 -113.15 193.3 -111.2 191.85 -111.15 189.85 -110.85 189.75 -109.85 188.6 -110.55 187.45 -110.2 187.4 -110.15 187.0 -111.35 184.65 -112.05 184.05 -112.15 184.1 -112.05 184.75 -109.1 184.9 -108.25 183.5 -109.1 183.1 -109.4 178.8 -111.9 Q177.3 -111.1 174.7 -108.5 L174.4 -108.25 174.35 -108.4 Q173.45 -110.75 174.0 -111.5 171.35 -112.0 167.6 -109.75 L168.65 -112.05 Q169.55 -113.6 170.95 -114.4 L171.05 -114.5 170.7 -114.7 Q168.1 -116.1 164.7 -115.75 166.05 -116.6 168.2 -117.15 L167.0 -117.9 164.55 -116.05 164.5 -116.0 163.1 -114.75 162.6 -114.25 162.4 -114.75 Q161.7 -116.85 162.2 -117.5 L158.9 -117.2 159.05 -116.35 158.1 -116.9 Q157.0 -116.5 155.8 -115.75 L156.7 -117.8 Q155.15 -118.6 152.95 -120.0 151.4 -119.15 148.55 -116.35 147.6 -118.85 148.15 -119.6 145.5 -120.1 141.75 -117.85 142.5 -120.2 143.85 -121.55 L143.1 -121.95 143.5 -121.95 142.9 -122.15 139.3 -123.15 140.15 -119.25 Q138.3 -120.35 138.35 -120.4 L134.4 -122.65 134.05 -122.9 Q132.5 -122.05 129.65 -119.25 129.2 -120.4 129.1 -121.2 L129.05 -121.2 124.3 -120.95 Q125.05 -120.4 125.2 -119.4 L125.15 -117.95 123.25 -119.05 123.65 -119.05 122.95 -119.3 119.45 -120.25 119.85 -118.5 120.3 -116.35 Q118.45 -117.45 118.5 -117.5 118.1 -117.7 117.65 -117.95 L114.2 -120.0 112.5 -118.8 109.8 -116.35 Q108.85 -118.85 109.4 -119.6 106.8 -120.1 103.1 -117.9 L103.0 -117.85 103.05 -117.95 Q103.8 -120.15 105.0 -121.45 L104.05 -121.95 104.45 -121.95 104.05 -122.1 100.25 -123.15 101.1 -119.25 Q99.25 -120.35 99.3 -120.4 L95.0 -122.9 Q93.45 -122.05 90.6 -119.25 89.75 -121.55 90.15 -122.35 L89.8 -122.55 89.4 -122.6 87.95 -122.3 86.25 -121.95 Q85.1 -121.55 83.8 -120.75 L84.05 -121.45 Q84.85 -123.5 86.2 -124.7 L84.05 -126.0 Q82.5 -125.15 79.65 -122.35 78.7 -124.85 79.25 -125.6 76.65 -126.1 73.05 -123.95 L72.85 -123.85 73.05 -124.4 Q74.15 -127.35 76.3 -128.6 L75.05 -129.2 73.55 -128.5 73.05 -128.2 72.65 -127.9 71.45 -127.0 69.75 -125.4 69.6 -125.35 64.0 -124.1 Q62.65 -124.1 61.5 -125.0 L60.0 -126.6 59.8 -126.95 Q59.05 -128.2 58.75 -129.4 L57.5 -130.1 57.9 -130.1 56.95 -130.4 53.7 -131.3 54.55 -127.4 52.75 -128.55 48.45 -131.05 Q46.9 -130.2 44.05 -127.4 43.1 -129.9 43.65 -130.65 L41.2 -130.55 Q39.4 -130.2 37.25 -128.9 37.95 -131.05 39.15 -132.4 L40.7 -133.65 40.55 -133.75 40.55 -133.6 39.45 -134.25 Q37.2 -135.15 34.35 -134.9 35.25 -135.5 36.6 -135.95 35.6 -136.55 34.45 -137.25 L34.05 -137.0 34.05 -136.85 34.0 -136.9 33.0 -136.25 30.05 -133.6 30.05 -133.65 29.6 -133.25 29.6 -133.3 Q28.65 -135.75 29.2 -136.5 26.7 -136.95 23.25 -135.0 L22.8 -134.75 23.0 -135.35 Q24.0 -137.95 25.8 -139.2 L26.2 -139.5 Q23.5 -141.1 19.9 -140.75 L20.55 -141.1 20.35 -141.1 Q22.3 -142.35 25.85 -142.95 L23.85 -144.05 24.75 -144.15 24.3 -144.4 27.2 -144.8 26.3 -145.4 22.0 -147.9 20.85 -147.1 18.45 -145.0 18.45 -144.95 18.2 -144.7 18.05 -144.6 17.1 -143.7 Q16.35 -145.7 16.55 -146.6 L16.5 -146.6 16.45 -146.65 16.45 -146.6 16.35 -145.85 15.9 -146.15 14.5 -146.9 Q13.25 -146.7 11.75 -145.95 L12.0 -144.8 11.3 -145.2 11.5 -144.25 Q9.65 -145.35 9.7 -145.4 L5.4 -147.9 Q3.85 -147.05 1.0 -144.25 0.05 -146.75 0.6 -147.5 -1.0 -147.8 -2.95 -147.1 L-3.0 -145.7 -4.35 -146.5 -5.8 -145.75 -5.3 -147.05 -6.55 -147.45 -8.7 -148.0 -8.3 -146.2 -7.85 -144.1 -9.6 -145.2 -9.65 -145.25 -13.95 -147.75 -15.85 -146.35 Q-13.15 -145.65 -11.55 -143.8 L-11.5 -143.75 -11.4 -143.65 -11.6 -143.7 Q-15.05 -144.45 -17.5 -143.65 -16.5 -142.9 -16.55 -141.35 L-16.65 -140.65 -17.7 -141.3 -18.55 -141.75 -18.15 -141.75 -22.35 -142.95 -21.9 -141.0 -21.5 -139.05 -23.3 -140.2 -24.45 -140.8 -27.6 -142.7 Q-28.75 -142.05 -30.65 -140.3 L-31.85 -139.15 -32.0 -139.05 -32.1 -139.3 -32.35 -140.15 Q-32.8 -141.75 -32.4 -142.3 -34.05 -142.6 -36.15 -141.8 L-38.8 -140.55 -37.5 -143.25 Q-36.6 -144.6 -35.35 -145.3 -36.65 -146.05 -38.1 -146.35 L-40.8 -146.6 -41.7 -146.55 -40.8 -147.0 -39.4 -147.6 -37.5 -148.15 -37.15 -148.2 -35.35 -148.55 -37.0 -149.45 -37.75 -149.85 -36.9 -149.95 -35.1 -150.2 -34.95 -152.2 -36.35 -151.9 -36.6 -151.9 -41.4 -151.45 -42.4 -151.4 -42.5 -151.4 -48.4 -151.1 -49.95 -151.05 -49.1 -148.95 -49.65 -148.95 -49.65 -148.9 Q-49.85 -148.55 -52.2 -149.35 L-55.3 -150.4 -55.3 -149.75 -55.2 -148.4 Q-55.1 -147.75 -55.65 -147.75 L-57.1 -148.4 -58.7 -149.05 -59.7 -148.6 Q-60.55 -147.95 -60.7 -146.95 L-60.85 -146.85 Q-61.6 -148.95 -62.95 -148.95 -63.5 -148.95 -63.9 -147.75 -64.35 -146.6 -64.95 -146.6 -65.3 -146.6 -65.8 -147.6 L-66.25 -148.85 Q-66.65 -148.7 -67.3 -148.15 -67.8 -147.75 -68.25 -147.75 -69.05 -147.75 -69.35 -148.55 -69.65 -149.4 -69.9 -149.4 L-70.85 -148.9 -72.25 -148.15 -72.2 -149.15 -72.3 -149.55 Q-72.5 -150.05 -73.1 -150.05 -74.25 -150.05 -74.35 -150.7 L-74.7 -150.7 Q-75.6 -150.7 -76.95 -150.1 L-77.45 -148.8 Q-75.65 -148.55 -74.2 -147.95 L-73.55 -147.65 Q-72.25 -146.95 -71.25 -145.9 L-71.1 -145.7 -71.3 -145.75 -74.95 -146.1 -77.2 -145.7 Q-76.0 -144.8 -76.35 -142.7 L-78.25 -143.8 -77.85 -143.8 -79.5 -144.35 -80.45 -144.65 -81.1 -144.8 -81.9 -144.95 -82.05 -145.0 -81.9 -144.3 -81.85 -144.1 -81.55 -142.65 -81.2 -141.1 -82.7 -142.0 -83.0 -142.25 -87.3 -144.75 Q-88.85 -143.9 -91.7 -141.1 -92.65 -143.6 -92.1 -144.35 -94.75 -144.85 -98.5 -142.6 -97.4 -146.0 -95.05 -147.35 -97.75 -148.95 -101.4 -148.6 -99.25 -150.0 -95.05 -150.6 L-97.45 -151.9 -91.65 -152.7 -91.05 -153.9 -86.25 -152.35 -84.25 -154.05 -84.25 -153.95 -82.25 -154.7 -82.1 -154.7 -81.9 -154.75 -81.9 -159.45 -80.45 -159.45 -80.45 -159.3 -70.25 -159.3 -41.85 -159.3 -33.4 -159.3 -30.95 -159.3 -30.95 -159.45 -14.5 -159.45 -14.5 -159.3 -0.05 -159.3 6.8 -159.3 15.95 -159.3 18.45 -159.3 18.45 -159.45 M90.15 -122.4 L90.2 -122.5 90.15 -122.5 90.15 -122.4 M105.8 -122.95 L106.0 -122.3 106.45 -122.6 105.8 -122.95 M157.8 -138.65 L157.8 -138.6 157.65 -138.45 Q155.85 -136.15 155.3 -134.3 155.0 -130.7 157.8 -130.3 L165.3 -129.5 168.9 -129.2 169.15 -129.2 170.75 -129.1 181.55 -129.6 Q186.6 -131.0 187.25 -137.1 186.9 -137.25 177.3 -142.95 L176.7 -143.3 175.55 -143.95 Q171.7 -146.2 169.15 -146.8 L168.45 -146.95 167.25 -147.1 Q160.85 -142.35 157.8 -138.65 M129.1 -122.15 L129.25 -122.5 128.45 -122.55 129.1 -122.15 M145.0 -122.45 L145.2 -122.6 144.95 -122.75 145.0 -122.45 M158.3 -119.8 L158.75 -120.15 158.2 -120.25 158.3 -119.8 M33.35 -146.2 L33.05 -146.45 32.95 -145.85 31.05 -146.95 31.45 -146.95 27.8 -148.05 28.5 -144.95 29.8 -145.15 30.25 -146.05 30.5 -145.95 30.7 -146.4 33.55 -145.45 33.55 -145.5 33.35 -146.2 M39.75 -137.4 L39.9 -136.75 40.7 -136.9 39.75 -137.4 M11.3 -148.0 L11.4 -147.6 11.65 -147.95 11.3 -148.0 M58.65 -136.1 L58.3 -135.1 59.15 -134.95 59.5 -136.1 58.65 -136.1 M-21.7 -150.35 L-22.05 -150.55 -21.9 -150.2 -21.7 -150.35" fill="#9be054" fill-rule="evenodd" stroke="none"/>
    <path d="M-33.4 -159.3 L-41.85 -159.3 -41.8 -159.45 -33.35 -159.45 -33.4 -159.3 M-71.25 -145.9 Q-72.25 -146.95 -73.55 -147.65 L-74.2 -147.95 -73.5 -148.6 -72.3 -149.55 -72.2 -149.15 -72.25 -148.15 -70.85 -148.9 -69.9 -149.4 Q-69.65 -149.4 -69.35 -148.55 -69.05 -147.75 -68.25 -147.75 -67.8 -147.75 -67.3 -148.15 -66.65 -148.7 -66.25 -148.85 L-65.8 -147.6 Q-65.3 -146.6 -64.95 -146.6 -64.35 -146.6 -63.9 -147.75 -63.5 -148.95 -62.95 -148.95 -61.6 -148.95 -60.85 -146.85 L-60.7 -146.95 Q-60.55 -147.95 -59.7 -148.6 L-58.7 -149.05 -57.1 -148.4 -55.65 -147.75 Q-55.1 -147.75 -55.2 -148.4 L-55.3 -149.75 -53.45 -143.65 -53.45 -143.3 Q-53.75 -140.2 -60.1 -134.5 L-60.4 -134.25 -62.55 -132.4 -63.25 -131.85 Q-67.45 -128.5 -70.95 -126.7 -70.8 -129.45 -70.25 -132.2 L-69.75 -134.5 -68.85 -137.5 -68.2 -139.25 Q-66.8 -142.95 -65.1 -145.4 L-71.25 -145.9 M-41.4 -151.45 L-36.6 -151.9 -36.35 -151.9 -36.9 -149.95 -37.75 -149.85 -37.0 -149.45 -37.15 -148.2 -37.5 -148.15 -39.4 -147.6 -40.3 -149.3 -40.8 -150.25 -41.05 -150.7 -41.4 -151.45 M15.9 -146.15 L16.35 -145.85 16.45 -146.6 16.5 -146.6 16.55 -146.6 Q16.35 -145.7 17.1 -143.7 L18.05 -144.6 18.2 -144.7 18.45 -144.95 18.45 -145.0 20.85 -147.1 22.0 -147.9 26.3 -145.4 27.2 -144.8 24.3 -144.4 24.75 -144.15 23.85 -144.05 25.85 -142.95 Q22.3 -142.35 20.35 -141.1 L20.55 -141.1 19.9 -140.75 Q23.5 -141.1 26.2 -139.5 L25.8 -139.2 Q24.0 -137.95 23.0 -135.35 L22.7 -135.05 19.55 -132.05 17.0 -129.65 17.0 -129.55 13.2 -126.0 3.15 -116.6 2.75 -117.0 2.75 -121.95 Q4.05 -124.7 7.5 -134.5 L7.6 -134.85 8.45 -137.2 10.2 -141.75 10.2 -141.8 15.9 -146.15 M39.15 -132.4 Q37.95 -131.05 37.25 -128.9 39.4 -130.2 41.2 -130.55 L41.8 -129.45 42.75 -129.9 42.8 -129.85 43.8 -127.45 Q43.8 -126.75 39.95 -121.75 L34.8 -115.45 32.6 -115.45 32.6 -115.1 27.35 -115.1 27.35 -123.1 27.5 -123.6 27.5 -123.65 29.3 -132.05 29.35 -132.55 29.35 -132.95 29.35 -133.1 29.45 -133.1 32.6 -133.1 32.6 -133.45 37.8 -133.45 39.15 -132.4 M168.65 -112.05 L167.6 -109.75 Q171.35 -112.0 174.0 -111.5 173.45 -110.75 174.35 -108.4 L174.4 -108.25 174.7 -108.5 Q177.3 -111.1 178.8 -111.9 L183.1 -109.4 183.5 -109.1 184.9 -108.25 184.75 -109.1 184.1 -112.05 184.65 -112.05 187.0 -111.35 187.4 -110.15 187.45 -110.2 188.6 -110.55 189.75 -109.85 189.85 -110.85 191.85 -111.15 191.85 -109.1 Q187.55 -107.5 180.15 -107.05 L167.7 -106.25 159.65 -105.55 Q154.5 -104.65 150.45 -102.75 L142.3 -101.7 140.5 -101.5 145.95 -104.9 149.15 -106.6 150.45 -107.2 Q156.1 -109.85 163.2 -112.05 L168.65 -112.05 M15.4 -108.25 Q13.1 -109.6 10.1 -110.7 L5.4 -112.3 5.35 -112.35 6.9 -113.35 Q9.9 -115.4 13.95 -118.6 L17.0 -120.95 17.0 -121.1 19.35 -122.8 Q21.5 -124.25 23.05 -124.95 L23.1 -123.65 23.05 -123.1 Q22.45 -119.85 18.95 -113.25 L17.0 -109.75 17.0 -110.05 Q16.7 -109.5 15.4 -108.25 M40.35 -94.5 L40.4 -94.4 40.1 -94.4 40.35 -94.5 M133.95 -95.65 L132.45 -95.9 134.1 -95.85 135.65 -97.45 Q136.25 -96.4 134.45 -95.6 L133.95 -95.65" fill="#b6b6b6" fill-rule="evenodd" stroke="none"/>
    <path d="M18.45 -159.45 L18.45 -159.3 15.95 -159.3 15.8 -159.45 18.45 -159.45 M6.8 -159.3 L-0.05 -159.3 -0.1 -159.45 6.6 -159.45 6.8 -159.3 M-70.25 -159.3 L-80.45 -159.3 -80.45 -159.45 -69.95 -159.45 -70.25 -159.3 M-82.7 -142.0 L-81.2 -141.1 -81.55 -142.65 -81.3 -142.85 -80.6 -143.4 -80.15 -142.1 -80.8 -140.3 -80.85 -140.15 -79.8 -134.95 Q-78.85 -130.75 -78.85 -128.45 L-79.1 -126.1 -78.6 -125.7 -76.95 -128.7 Q-74.85 -132.5 -74.85 -133.5 L-76.2 -140.85 -76.1 -142.8 -76.35 -142.7 Q-76.0 -144.8 -77.2 -145.7 L-74.95 -146.1 -71.3 -145.75 -71.1 -145.7 -71.25 -145.9 -65.1 -145.4 Q-66.8 -142.95 -68.2 -139.25 L-68.85 -137.5 -69.75 -134.5 -70.25 -132.2 Q-70.8 -129.45 -70.95 -126.7 -67.45 -128.5 -63.25 -131.85 L-62.55 -132.4 -60.4 -134.25 -60.1 -134.5 Q-53.75 -140.2 -53.45 -143.3 L-53.45 -143.65 -55.3 -149.75 -55.3 -150.4 -52.2 -149.35 Q-49.85 -148.55 -49.65 -148.9 L-49.65 -148.95 -49.1 -148.95 -49.95 -151.05 -48.4 -151.1 -47.2 -149.5 Q-44.4 -145.85 -43.4 -143.1 L-43.35 -142.9 -42.6 -140.5 -39.85 -136.85 -38.8 -135.35 -38.55 -135.0 -38.4 -134.5 -38.35 -134.15 -36.9 -129.6 -41.5 -130.05 -47.4 -130.55 -45.55 -124.5 -44.9 -122.5 -45.85 -121.85 -45.9 -121.8 -46.75 -121.15 -50.15 -118.35 -52.9 -117.6 -59.15 -115.65 Q-65.65 -113.4 -69.1 -111.8 L-71.45 -113.15 -71.6 -113.2 -72.6 -113.75 -76.05 -115.5 -75.4 -116.9 Q-76.6 -117.9 -83.4 -121.95 L-83.15 -122.2 Q-83.55 -124.75 -83.55 -127.55 L-83.5 -131.55 Q-83.45 -139.45 -83.0 -141.3 L-82.7 -142.0 M-37.5 -143.25 L-38.8 -140.55 -36.15 -141.8 -35.1 -141.0 -32.1 -139.3 -32.0 -139.05 -31.85 -139.15 -27.2 -136.4 Q-25.3 -135.25 -24.35 -135.25 -23.85 -135.25 -19.8 -137.95 L-11.6 -143.7 -11.4 -143.65 -11.5 -143.75 -10.5 -144.55 -9.6 -145.2 -7.85 -144.1 -8.3 -146.2 Q-7.4 -146.85 -6.55 -147.45 L-5.3 -147.05 -5.8 -145.75 -4.35 -146.5 -3.0 -145.7 -2.95 -147.1 Q-1.0 -147.8 0.6 -147.5 0.05 -146.75 1.0 -144.25 3.85 -147.05 5.4 -147.9 L9.7 -145.4 Q9.65 -145.35 11.5 -144.25 L11.3 -145.2 12.0 -144.8 11.75 -145.95 Q13.25 -146.7 14.5 -146.9 L15.9 -146.15 10.2 -141.8 10.2 -141.75 8.45 -137.2 7.6 -134.85 7.5 -134.5 Q4.05 -124.7 2.75 -121.95 L2.75 -117.0 1.1 -118.9 -0.9 -121.55 Q-5.0 -127.6 -4.4 -131.05 L-5.15 -131.05 Q-7.05 -131.05 -14.75 -128.8 L-22.15 -126.55 Q-24.7 -126.55 -27.35 -127.7 -30.35 -128.95 -33.4 -131.65 L-36.1 -134.25 -36.3 -134.5 Q-38.0 -136.4 -38.95 -138.2 L-39.4 -139.4 -39.75 -140.55 Q-40.35 -142.6 -40.6 -144.7 L-39.65 -144.35 Q-38.35 -144.1 -37.5 -143.25 M16.45 -146.6 L16.45 -146.65 16.5 -146.6 16.45 -146.6 M23.0 -135.35 L22.8 -134.75 23.25 -135.0 Q26.7 -136.95 29.2 -136.5 28.65 -135.75 29.6 -133.3 L29.45 -133.1 29.35 -133.1 29.35 -132.95 29.35 -132.55 29.3 -132.05 27.5 -123.65 27.35 -123.65 23.1 -123.65 23.05 -124.95 Q21.5 -124.25 19.35 -122.8 L17.0 -121.1 17.0 -120.95 13.95 -118.6 Q9.9 -115.4 6.9 -113.35 L6.6 -114.05 6.2 -114.25 Q4.7 -115.05 3.15 -116.6 L13.2 -126.0 17.0 -129.55 17.0 -129.65 19.55 -132.05 22.7 -135.05 23.0 -135.35 M61.5 -125.0 Q62.65 -124.1 64.0 -124.1 L69.6 -125.35 69.75 -125.4 71.45 -127.0 72.65 -127.9 73.05 -128.2 73.55 -128.5 75.05 -129.2 76.3 -128.6 Q74.15 -127.35 73.05 -124.4 L72.85 -123.85 73.05 -123.95 Q76.65 -126.1 79.25 -125.6 78.7 -124.85 79.65 -122.35 82.5 -125.15 84.05 -126.0 L86.2 -124.7 Q84.85 -123.5 84.05 -121.45 L83.8 -120.75 Q85.1 -121.55 86.25 -121.95 L87.95 -122.3 86.25 -119.7 Q85.1 -118.25 83.65 -117.15 79.55 -114.1 73.05 -114.05 L72.8 -114.05 67.4 -114.2 66.4 -114.3 63.3 -114.85 63.15 -114.9 Q62.9 -120.35 61.5 -125.0 M164.55 -116.05 L167.0 -117.9 168.2 -117.15 Q166.05 -116.6 164.7 -115.75 L164.55 -116.05 M170.7 -114.7 L171.05 -114.5 170.95 -114.4 170.7 -114.7 M184.1 -112.05 L184.05 -112.15 184.65 -112.05 184.1 -112.05 M191.85 -109.1 L191.85 -98.45 189.65 -96.9 186.45 -94.4 176.0 -94.35 Q175.4 -91.0 175.7 -86.75 175.95 -82.7 174.3 -82.0 170.6 -80.4 162.05 -78.6 153.0 -76.65 146.75 -76.25 132.85 -75.35 126.95 -64.35 L126.45 -64.35 Q126.55 -73.45 129.6 -84.1 131.3 -89.9 133.6 -94.15 L132.85 -94.15 132.9 -94.4 133.8 -94.45 139.2 -94.9 134.45 -95.6 Q136.25 -96.4 135.65 -97.45 139.95 -103.45 145.95 -104.9 L140.5 -101.5 142.3 -101.7 150.45 -102.75 Q154.5 -104.65 159.65 -105.55 L167.7 -106.25 180.15 -107.05 Q187.55 -107.5 191.85 -109.1 M123.35 -55.55 L123.3 -55.5 Q121.45 -50.45 119.9 -48.65 118.15 -46.15 117.15 -45.3 115.6 -43.9 111.85 -43.3 109.25 -42.9 106.2 -40.05 L97.3 -31.4 Q92.1 -26.65 89.0 -23.25 L88.9 -23.35 Q88.7 -29.3 85.95 -42.1 L84.9 -47.15 Q81.5 -46.0 74.0 -45.55 L66.95 -45.35 67.25 -48.3 67.05 -50.25 66.7 -50.3 66.75 -50.55 81.1 -49.55 68.55 -54.85 67.5 -57.8 Q64.35 -66.0 60.35 -70.7 L57.75 -73.3 Q67.1 -71.9 75.1 -68.3 L81.95 -64.95 Q81.65 -70.4 81.65 -76.1 L81.75 -76.85 81.8 -77.0 81.8 -77.1 81.55 -78.8 81.75 -78.7 81.5 -79.1 81.35 -80.05 Q80.75 -82.35 79.45 -84.5 L79.25 -84.4 79.1 -84.8 78.85 -85.4 78.6 -86.1 78.35 -87.2 78.3 -87.7 76.75 -88.65 77.15 -89.5 78.95 -94.4 79.3 -94.4 79.4 -94.75 79.55 -95.25 79.75 -95.8 82.0 -98.4 Q88.55 -98.15 96.15 -96.6 L99.15 -95.95 105.1 -94.6 106.2 -94.4 105.1 -94.4 104.05 -94.4 105.1 -94.15 Q105.0 -91.7 106.0 -91.0 L106.5 -90.8 106.0 -90.8 105.95 -90.45 Q105.8 -88.3 104.7 -86.75 L104.7 -84.15 116.95 -83.2 119.55 -75.9 Q121.6 -70.25 121.85 -67.8 L122.85 -60.95 123.35 -55.55 M157.8 -138.65 Q160.85 -142.35 167.25 -147.1 L168.45 -146.95 169.15 -146.8 Q171.7 -146.2 175.55 -143.95 L176.7 -143.3 177.3 -142.95 Q186.9 -137.25 187.25 -137.1 186.6 -131.0 181.55 -129.6 L170.75 -129.1 169.15 -129.2 168.9 -129.2 165.3 -129.5 157.8 -130.3 Q155.0 -130.7 155.3 -134.3 155.85 -136.15 157.65 -138.45 L157.8 -138.6 157.8 -138.65 M158.3 -119.8 L158.2 -120.25 158.75 -120.15 158.3 -119.8 M145.0 -122.45 L144.95 -122.75 145.2 -122.6 145.0 -122.45 M33.35 -146.2 L33.55 -145.5 33.55 -145.45 30.7 -146.4 30.5 -145.95 30.25 -146.05 29.8 -145.15 28.5 -144.95 27.8 -148.05 31.45 -146.95 31.05 -146.95 32.95 -145.85 33.05 -146.45 33.35 -146.2 M11.3 -148.0 L11.65 -147.95 11.4 -147.6 11.3 -148.0 M58.65 -136.1 L59.5 -136.1 59.15 -134.95 58.3 -135.1 58.65 -136.1 M106.15 -75.95 L110.2 -77.5 Q112.95 -78.45 114.55 -79.7 L113.45 -80.55 Q112.7 -81.2 112.05 -81.2 111.15 -81.2 107.75 -79.65 L101.9 -77.0 Q98.5 -75.55 98.6 -72.35 99.25 -69.25 99.0 -67.6 L98.7 -67.45 96.9 -66.65 87.6 -61.75 82.7 -59.15 84.25 -50.5 Q92.5 -60.45 104.15 -65.5 108.75 -67.45 112.95 -68.45 L112.9 -68.55 111.65 -68.95 113.4 -68.95 109.2 -69.5 103.15 -69.0 Q102.85 -74.2 106.15 -75.95" fill="#a1a1a1" fill-rule="evenodd" stroke="none"/>
    <path d="M-0.05 -159.3 L-14.5 -159.3 -14.5 -159.45 -0.1 -159.45 -0.05 -159.3 M-30.95 -159.45 L-30.95 -159.3 -33.4 -159.3 -33.35 -159.45 -30.95 -159.45 M-36.35 -151.9 L-34.95 -152.2 -35.1 -150.2 -36.9 -149.95 -36.35 -151.9 M-37.0 -149.45 L-35.35 -148.55 -37.15 -148.2 -37.0 -149.45 M-39.4 -147.6 L-40.8 -147.0 -40.85 -147.75 -40.85 -148.0 -40.8 -150.25 -40.3 -149.3 -39.4 -147.6 M-40.8 -146.6 L-38.1 -146.35 Q-36.65 -146.05 -35.35 -145.3 -36.6 -144.6 -37.5 -143.25 -38.35 -144.1 -39.65 -144.35 L-40.6 -144.7 -40.8 -146.6 M-36.15 -141.8 Q-34.05 -142.6 -32.4 -142.3 -32.8 -141.75 -32.35 -140.15 L-32.1 -139.3 -35.1 -141.0 -36.15 -141.8 M-31.85 -139.15 L-30.65 -140.3 Q-28.75 -142.05 -27.6 -142.7 L-24.45 -140.8 -23.3 -140.2 -21.5 -139.05 -21.9 -141.0 -22.35 -142.95 -18.15 -141.75 -18.55 -141.75 -17.7 -141.3 -16.65 -140.65 -16.55 -141.35 Q-16.5 -142.9 -17.5 -143.65 -15.05 -144.45 -11.6 -143.7 L-19.8 -137.95 Q-23.85 -135.25 -24.35 -135.25 -25.3 -135.25 -27.2 -136.4 L-31.85 -139.15 M-11.5 -143.75 L-11.55 -143.8 Q-13.15 -145.65 -15.85 -146.35 L-13.95 -147.75 -9.65 -145.25 -9.6 -145.2 -10.5 -144.55 -11.5 -143.75 M-8.3 -146.2 L-8.7 -148.0 -6.55 -147.45 Q-7.4 -146.85 -8.3 -146.2 M29.6 -133.3 L29.6 -133.25 30.05 -133.65 30.05 -133.6 33.0 -136.25 34.0 -136.9 34.05 -136.85 34.05 -137.0 34.45 -137.25 Q35.6 -136.55 36.6 -135.95 35.25 -135.5 34.35 -134.9 37.2 -135.15 39.45 -134.25 L40.55 -133.6 40.55 -133.75 40.7 -133.65 39.15 -132.4 37.8 -133.45 32.6 -133.45 32.6 -133.1 29.45 -133.1 29.6 -133.3 M41.2 -130.55 L43.65 -130.65 Q43.1 -129.9 44.05 -127.4 46.9 -130.2 48.45 -131.05 L52.75 -128.55 54.55 -127.4 53.7 -131.3 56.95 -130.4 57.9 -130.1 57.5 -130.1 58.75 -129.4 Q59.05 -128.2 59.8 -126.95 L60.0 -126.6 61.5 -125.0 Q62.9 -120.35 63.15 -114.9 L63.2 -114.45 63.2 -112.5 63.2 -112.2 63.2 -111.95 Q63.0 -110.8 62.05 -109.65 60.9 -108.2 60.9 -106.75 L60.9 -106.45 60.95 -106.0 Q60.15 -103.35 58.95 -101.85 L57.75 -100.6 57.45 -100.35 57.4 -100.3 56.95 -100.15 51.35 -98.45 51.3 -98.45 50.9 -98.35 44.85 -96.35 40.35 -94.5 40.1 -94.4 40.4 -94.4 Q35.7 -92.35 33.35 -90.1 L32.75 -89.45 Q31.5 -87.95 29.4 -84.4 L29.2 -84.4 26.0 -78.75 26.25 -80.8 Q26.25 -99.25 18.25 -106.2 L15.4 -108.25 Q16.7 -109.5 17.0 -110.05 L17.0 -109.75 18.95 -113.25 Q22.45 -119.85 23.05 -123.1 L23.1 -123.65 27.35 -123.65 27.35 -123.1 27.35 -115.1 32.6 -115.1 32.6 -115.45 34.8 -115.45 39.95 -121.75 Q43.8 -126.75 43.8 -127.45 L42.8 -129.85 42.75 -129.9 41.8 -129.45 41.2 -130.55 M103.05 -117.95 L103.0 -117.85 103.1 -117.9 Q106.8 -120.1 109.4 -119.6 108.85 -118.85 109.8 -116.35 L112.5 -118.8 113.75 -118.0 117.25 -115.6 117.7 -115.3 122.0 -112.5 121.3 -111.45 117.7 -111.8 117.25 -111.85 111.75 -112.45 98.8 -113.45 98.8 -115.45 Q99.5 -116.05 102.8 -117.85 L103.05 -117.95 M82.0 -98.4 L85.75 -102.45 89.6 -106.4 92.8 -106.45 95.3 -106.35 Q100.2 -106.0 104.65 -104.25 L105.25 -104.0 104.7 -103.95 Q105.3 -99.45 105.1 -94.6 L99.15 -95.95 96.15 -96.6 Q88.55 -98.15 82.0 -98.4 M105.1 -94.4 L105.1 -94.2 105.1 -94.15 104.05 -94.4 105.1 -94.4 M106.5 -90.8 L115.1 -89.2 115.75 -86.95 115.95 -86.15 116.1 -85.65 116.1 -85.7 116.95 -83.2 104.7 -84.15 104.7 -86.75 Q105.8 -88.3 105.95 -90.45 L106.0 -90.8 106.5 -90.8 M39.75 -137.4 L40.7 -136.9 39.9 -136.75 39.75 -137.4 M66.0 -84.4 L65.35 -84.4 65.9 -84.65 66.0 -84.4 M114.55 -94.6 L114.6 -94.4 114.05 -94.4 114.55 -94.6 M106.15 -75.95 Q102.85 -74.2 103.15 -69.0 L109.2 -69.5 113.4 -68.95 111.65 -68.95 112.9 -68.55 112.95 -68.45 Q108.75 -67.45 104.15 -65.5 92.5 -60.45 84.25 -50.5 L82.7 -59.15 87.6 -61.75 96.9 -66.65 98.7 -67.45 99.0 -67.6 Q99.25 -69.25 98.6 -72.35 98.5 -75.55 101.9 -77.0 L107.75 -79.65 Q111.15 -81.2 112.05 -81.2 112.7 -81.2 113.45 -80.55 L114.55 -79.7 Q112.95 -78.45 110.2 -77.5 L106.15 -75.95 M-21.7 -150.35 L-21.9 -150.2 -22.05 -150.55 -21.7 -150.35" fill="#a8a8a8" fill-rule="evenodd" stroke="none"/>
    <path d="M64.7 -94.85 L64.85 -94.8 65.9 -94.4 64.55 -94.4 64.7 -94.85 M122.0 -112.5 L122.1 -112.45 121.3 -111.45 122.0 -112.5 M2.75 -117.0 L3.15 -116.6 2.75 -116.2 2.75 -117.0 M65.35 -84.4 L66.0 -84.4 65.65 -84.25 65.35 -84.4 M112.35 -93.1 L114.2 -93.8 114.2 -93.75 112.35 -93.1" fill="#c9c9c9" fill-rule="evenodd" stroke="none"/>
    <path d="M15.95 -159.3 L6.8 -159.3 6.6 -159.45 15.8 -159.45 15.95 -159.3 M-41.85 -159.3 L-70.25 -159.3 -69.95 -159.45 -41.8 -159.45 -41.85 -159.3 M-81.55 -142.65 L-81.85 -144.1 -81.9 -144.3 -81.9 -144.95 -81.1 -144.8 -80.45 -144.65 -79.5 -144.35 -77.85 -143.8 -78.25 -143.8 -76.35 -142.7 -76.1 -142.8 -76.2 -140.85 -74.85 -133.5 Q-74.85 -132.5 -76.95 -128.7 L-78.6 -125.7 -79.1 -126.1 -78.85 -128.45 Q-78.85 -130.75 -79.8 -134.95 L-80.85 -140.15 -80.8 -140.3 -80.15 -142.1 -80.6 -143.4 -81.3 -142.85 -81.55 -142.65 M-74.2 -147.95 Q-75.65 -148.55 -77.45 -148.8 L-76.95 -150.1 Q-75.6 -150.7 -74.7 -150.7 L-74.35 -150.7 Q-74.25 -150.05 -73.1 -150.05 -72.5 -150.05 -72.3 -149.55 L-73.5 -148.6 -74.2 -147.95 M-48.4 -151.1 L-42.5 -151.4 -42.4 -151.4 -41.4 -151.45 -41.05 -150.7 -40.8 -150.25 -40.85 -148.0 -40.85 -147.75 -40.8 -147.0 -41.7 -146.55 -40.8 -146.6 -40.6 -144.7 Q-40.35 -142.6 -39.75 -140.55 L-39.4 -139.4 -38.95 -138.2 -39.5 -139.4 -39.9 -140.5 -39.1 -137.1 -38.7 -135.5 -38.55 -135.0 -38.8 -135.35 -39.85 -136.85 -42.6 -140.5 -43.35 -142.9 -43.4 -143.1 Q-44.4 -145.85 -47.2 -149.5 L-48.4 -151.1 M87.95 -122.3 L89.4 -122.6 89.8 -122.55 90.15 -122.35 Q89.75 -121.55 90.6 -119.25 93.45 -122.05 95.0 -122.9 L99.3 -120.4 Q99.25 -120.35 101.1 -119.25 L100.25 -123.15 104.05 -122.1 104.45 -121.95 104.05 -121.95 105.0 -121.45 Q103.8 -120.15 103.05 -117.95 L102.8 -117.85 Q99.5 -116.05 98.8 -115.45 L98.8 -113.45 111.75 -112.45 117.25 -111.85 117.7 -111.8 121.3 -111.45 122.1 -112.45 122.0 -112.5 117.7 -115.3 117.25 -115.6 113.75 -118.0 112.5 -118.8 114.2 -120.0 117.65 -117.95 Q118.1 -117.7 118.5 -117.5 118.45 -117.45 120.3 -116.35 L119.85 -118.5 119.45 -120.25 122.95 -119.3 123.65 -119.05 123.25 -119.05 125.15 -117.95 125.2 -119.4 Q125.05 -120.4 124.3 -120.95 L129.05 -121.2 129.1 -121.2 Q129.2 -120.4 129.65 -119.25 132.5 -122.05 134.05 -122.9 L134.4 -122.65 138.35 -120.4 Q138.3 -120.35 140.15 -119.25 L139.3 -123.15 142.9 -122.15 143.5 -121.95 143.1 -121.95 143.85 -121.55 Q142.5 -120.2 141.75 -117.85 145.5 -120.1 148.15 -119.6 147.6 -118.85 148.55 -116.35 151.4 -119.15 152.95 -120.0 155.15 -118.6 156.7 -117.8 L155.8 -115.75 Q157.0 -116.5 158.1 -116.9 L159.05 -116.35 158.9 -117.2 162.2 -117.5 Q161.7 -116.85 162.4 -114.75 L162.6 -114.25 163.1 -114.75 164.5 -116.0 164.55 -116.05 164.7 -115.75 Q168.1 -116.1 170.7 -114.7 L170.95 -114.4 Q169.55 -113.6 168.65 -112.05 L163.2 -112.05 Q156.1 -109.85 150.45 -107.2 L149.15 -106.6 145.95 -104.9 Q139.95 -103.45 135.65 -97.45 L134.1 -95.85 132.45 -95.9 133.95 -95.65 133.6 -95.25 132.9 -94.4 132.85 -94.15 133.6 -94.15 Q131.3 -89.9 129.6 -84.1 126.55 -73.45 126.45 -64.35 L126.95 -64.35 126.85 -64.15 126.65 -63.7 126.45 -63.35 123.35 -55.55 122.85 -60.95 121.85 -67.8 Q121.6 -70.25 119.55 -75.9 L116.95 -83.2 116.1 -85.7 116.1 -85.65 115.95 -86.15 115.75 -86.95 115.1 -89.2 106.5 -90.8 106.0 -91.0 Q105.0 -91.7 105.1 -94.15 L105.1 -94.2 105.1 -94.4 106.2 -94.4 105.1 -94.6 Q105.3 -99.45 104.7 -103.95 L105.25 -104.0 104.65 -104.25 Q100.2 -106.0 95.3 -106.35 L92.8 -106.45 89.6 -106.4 85.75 -102.45 82.0 -98.4 79.75 -95.8 79.55 -95.25 79.4 -94.75 79.3 -94.4 78.95 -94.4 77.15 -89.5 76.75 -88.65 74.75 -89.8 73.05 -90.7 Q69.4 -92.55 64.55 -94.4 L65.9 -94.4 64.85 -94.8 64.7 -94.85 56.95 -97.45 55.5 -97.85 54.95 -98.0 54.6 -98.05 54.45 -98.1 54.8 -98.25 55.1 -98.45 55.75 -98.8 56.95 -99.45 57.5 -99.75 58.0 -100.0 58.2 -100.1 57.95 -100.1 57.8 -100.45 57.45 -100.35 57.75 -100.6 58.95 -101.85 Q60.15 -103.35 60.95 -106.0 L60.9 -106.45 60.9 -106.75 Q60.9 -108.2 62.05 -109.65 63.0 -110.8 63.2 -111.95 L63.2 -112.2 63.2 -112.5 63.2 -114.45 63.15 -114.9 63.3 -114.85 66.4 -114.3 67.4 -114.2 72.8 -114.05 73.05 -114.05 Q79.55 -114.1 83.65 -117.15 85.1 -118.25 86.25 -119.7 L87.95 -122.3 M89.0 -23.25 L89.0 -23.2 88.9 -23.15 87.75 -21.85 84.3 -16.95 Q81.3 -13.0 80.05 -13.0 78.9 -13.0 76.75 -14.2 73.35 -16.15 67.45 -21.2 L66.8 -21.75 67.25 -26.4 Q67.25 -29.6 66.85 -31.95 66.45 -34.35 66.45 -39.15 L66.95 -45.35 74.0 -45.55 Q81.5 -46.0 84.9 -47.15 L85.95 -42.1 Q88.7 -29.3 88.9 -23.35 L89.0 -23.25 M29.05 -62.05 L26.35 -70.5 29.5 -74.7 34.25 -81.15 36.9 -84.4 36.95 -84.4 38.45 -86.1 40.0 -87.7 43.6 -91.0 Q45.6 -92.65 48.4 -94.4 L48.3 -94.4 51.6 -96.45 51.7 -95.7 51.8 -94.4 51.3 -94.4 51.35 -91.1 54.9 -90.1 Q50.55 -87.3 48.5 -85.3 45.8 -82.65 45.8 -80.1 L45.8 -79.5 57.25 -80.55 60.2 -80.7 70.05 -79.95 80.0 -77.35 81.75 -76.85 81.65 -76.1 Q81.65 -70.4 81.95 -64.95 L75.1 -68.3 Q67.1 -71.9 57.75 -73.3 L57.45 -73.55 56.95 -73.9 Q52.85 -76.95 48.0 -76.95 39.3 -76.95 34.25 -71.05 L33.2 -69.65 Q31.0 -66.65 29.05 -62.05 M90.15 -122.4 L90.15 -122.5 90.2 -122.5 90.15 -122.4 M105.8 -122.95 L106.45 -122.6 106.0 -122.3 105.8 -122.95 M129.1 -122.15 L128.45 -122.55 129.25 -122.5 129.1 -122.15 M27.5 -123.65 L27.5 -123.6 27.35 -123.1 27.35 -123.65 27.5 -123.65 M68.55 -54.85 L81.1 -49.55 66.75 -50.55 66.7 -50.3 66.45 -50.3 63.65 -50.55 60.75 -50.45 Q60.25 -50.3 59.8 -49.35 57.95 -45.25 52.5 -39.75 L52.5 -41.75 Q54.75 -45.1 56.35 -52.2 57.65 -58.05 58.3 -58.05 L60.2 -57.45 64.95 -55.7 68.8 -54.2 68.55 -54.85 M65.9 -84.65 L66.0 -84.9 66.15 -84.8 65.9 -84.65 M114.55 -94.6 L114.05 -94.4 114.6 -94.4 114.55 -94.6 M112.35 -93.1 L114.2 -93.75 114.2 -93.8 112.35 -93.1" fill="#959595" fill-rule="evenodd" stroke="none"/>
    <path d="M5.35 -112.35 L5.35 -112.3 5.3 -112.35 1.95 -115.0 1.9 -115.05 -1.0 -117.2 -3.35 -118.95 -6.5 -121.25 -11.45 -120.65 -11.55 -120.65 -13.85 -120.55 -14.1 -120.55 -14.1 -120.6 Q-16.7 -122.2 -20.3 -123.75 -24.5 -125.55 -28.2 -126.35 L-33.8 -127.0 Q-36.85 -127.0 -40.7 -125.05 L-40.75 -124.8 -40.65 -124.85 -39.95 -122.95 -46.5 -121.2 -46.75 -121.15 -45.9 -121.8 -45.85 -121.85 -44.9 -122.5 -45.55 -124.5 -47.4 -130.55 -41.5 -130.05 -36.9 -129.6 -38.35 -134.15 -38.4 -134.5 -38.55 -135.0 -38.7 -135.5 -39.1 -137.1 -39.9 -140.5 -39.5 -139.4 -38.95 -138.2 Q-38.0 -136.4 -36.3 -134.5 L-36.1 -134.25 -33.4 -131.65 Q-30.35 -128.95 -27.35 -127.7 -24.7 -126.55 -22.15 -126.55 L-14.75 -128.8 Q-7.05 -131.05 -5.15 -131.05 L-4.4 -131.05 Q-5.0 -127.6 -0.9 -121.55 L1.1 -118.9 2.75 -117.0 2.75 -116.2 3.15 -116.6 Q4.7 -115.05 6.2 -114.25 L6.6 -114.05 6.9 -113.35 5.35 -112.35 M-36.9 -129.6 L-36.9 -129.55 -36.4 -129.55 -36.9 -129.6" fill="#747474" fill-rule="evenodd" stroke="none"/>
    <path d="M66.8 -21.75 L61.7 -26.35 56.95 -26.3 43.95 -26.95 Q33.0 -28.0 33.75 -26.0 28.1 -36.15 28.55 -40.0 L29.15 -45.65 29.2 -54.6 29.05 -62.05 Q31.0 -66.65 33.2 -69.65 L34.25 -71.05 Q39.3 -76.95 48.0 -76.95 52.85 -76.95 56.95 -73.9 L57.45 -73.55 57.75 -73.3 60.35 -70.7 Q64.35 -66.0 67.5 -57.8 L68.55 -54.85 68.8 -54.2 64.95 -55.7 60.2 -57.45 58.3 -58.05 Q57.65 -58.05 56.35 -52.2 54.75 -45.1 52.5 -41.75 L52.5 -39.75 Q57.95 -45.25 59.8 -49.35 60.25 -50.3 60.75 -50.45 L63.65 -50.55 66.45 -50.3 66.7 -50.3 67.05 -50.25 67.25 -48.3 66.95 -45.35 66.45 -39.15 Q66.45 -34.35 66.85 -31.95 67.25 -29.6 67.25 -26.4 L66.8 -21.75" fill="#bfbfbf" fill-rule="evenodd" stroke="none"/>
    <path d="M26.35 -70.5 L25.3 -74.35 25.8 -77.55 26.0 -78.75 29.2 -84.4 29.4 -84.4 Q31.5 -87.95 32.75 -89.45 L33.35 -90.1 Q35.7 -92.35 40.4 -94.4 L40.35 -94.5 44.85 -96.35 50.9 -98.35 51.3 -98.45 51.35 -98.45 56.95 -100.15 57.4 -100.3 57.45 -100.35 57.8 -100.45 57.95 -100.1 58.0 -100.0 57.5 -99.75 56.95 -99.45 55.75 -98.8 55.1 -98.45 54.8 -98.25 54.45 -98.1 54.6 -98.05 54.95 -98.0 55.5 -97.85 56.95 -97.45 64.7 -94.85 64.55 -94.4 Q69.4 -92.55 73.05 -90.7 L74.75 -89.8 76.75 -88.65 78.3 -87.7 78.35 -87.2 78.6 -86.1 78.85 -85.4 79.1 -84.8 79.25 -84.4 79.45 -84.5 Q80.75 -82.35 81.35 -80.05 L81.5 -79.1 81.75 -78.7 81.55 -78.8 81.8 -77.1 81.8 -77.0 81.75 -76.85 80.0 -77.35 70.05 -79.95 60.2 -80.7 57.25 -80.55 45.8 -79.5 45.8 -80.1 Q45.8 -82.65 48.5 -85.3 50.55 -87.3 54.9 -90.1 L51.35 -91.1 51.3 -94.4 51.8 -94.4 51.7 -95.7 51.6 -96.45 48.3 -94.4 48.4 -94.4 Q45.6 -92.65 43.6 -91.0 L40.0 -87.7 38.45 -86.1 36.95 -84.4 36.9 -84.4 34.25 -81.15 29.5 -74.7 26.35 -70.5 M65.35 -84.4 L65.65 -84.25 66.0 -84.4 65.9 -84.65 65.35 -84.4 M65.9 -84.65 L66.15 -84.8 66.0 -84.9 65.9 -84.65 M79.25 -84.4 L78.55 -84.4 78.65 -84.1 78.7 -84.1 79.25 -84.4" fill="#b1b1b1" fill-rule="evenodd" stroke="none"/>
  </g>
</svg>
