<?xml version="1.0" encoding="UTF-8" standalone="no"?>
<svg xmlns:ffdec="https://www.free-decompiler.com/flash" xmlns:xlink="http://www.w3.org/1999/xlink" ffdec:objectType="shape" height="34.95px" width="33.5px" xmlns="http://www.w3.org/2000/svg">
  <g transform="matrix(1.0, 0.0, 0.0, 1.0, 11.6, 34.25)">
    <path d="M21.15 -33.75 L21.4 -26.0 13.65 -13.9 14.25 -13.5 15.2 -13.35 14.5 -12.65 12.25 -13.95 12.15 -13.8 13.7 -13.0 10.4 -9.9 9.75 -10.2 8.75 -8.7 7.45 -9.35 7.95 -10.7 5.65 -10.65 4.95 -11.6 4.9 -11.6 2.85 -14.0 1.2 -13.75 0.85 -14.0 -0.45 -12.7 3.35 -10.2 3.55 -11.0 4.55 -10.65 4.9 -7.95 4.2 -6.9 5.45 -3.1 9.55 -2.4 Q11.35 -1.95 11.0 -1.55 L9.4 -1.0 Q6.7 -0.55 4.1 -0.95 1.55 -1.3 0.9 -2.25 L2.7 -7.65 2.6 -9.3 2.2 -9.35 -1.7 -11.35 -1.75 -11.45 -1.15 -7.8 -0.6 -8.75 0.9 -9.9 1.4 -9.25 0.5 -7.15 -0.5 -6.15 -1.05 -5.4 -1.15 -2.25 3.65 -0.4 Q3.1 0.35 -2.0 0.15 L-5.4 -0.15 Q-6.85 -0.35 -6.65 -0.6 L-3.35 -6.1 -3.3 -7.05 -2.3 -7.35 -2.4 -7.45 -3.35 -10.55 -3.7 -10.15 Q-4.85 -8.55 -5.6 -8.15 -7.95 -6.75 -9.95 -8.4 L-9.95 -8.45 Q-10.75 -9.45 -10.95 -10.5 -11.25 -11.7 -10.85 -13.3 L-9.9 -15.95 -9.1 -17.8 -7.7 -20.6 -7.6 -20.7 -7.45 -20.7 -7.3 -20.6 Q-6.5 -19.25 -5.0 -17.9 L-4.2 -18.4 Q-5.75 -20.75 -5.2 -23.7 -4.35 -27.45 -1.05 -28.05 0.75 -28.4 2.3 -28.1 3.5 -27.85 4.35 -27.2 L5.25 -26.35 5.95 -24.8 6.15 -24.9 Q6.85 -24.15 7.4 -22.4 8.05 -20.25 7.55 -18.8 7.3 -18.15 6.45 -17.45 5.45 -16.7 4.3 -16.55 L4.15 -16.5 Q4.45 -15.75 4.0 -15.05 L5.25 -13.4 6.7 -14.25 7.9 -15.55 8.65 -15.4 8.9 -15.55 9.2 -15.3 9.7 -15.2 9.75 -15.4 7.3 -16.8 7.75 -17.9 8.3 -16.85 8.9 -16.55 13.6 -32.45 21.15 -33.75 M11.85 -12.4 L11.45 -12.8 11.4 -12.7 11.85 -12.4" fill="#7b7b7b" fill-rule="evenodd" stroke="none"/>
    <path d="M21.15 -33.75 L13.6 -32.45 8.9 -16.55 8.3 -16.85 7.75 -17.9 7.3 -16.8 9.75 -15.4 9.7 -15.2 9.2 -15.3 8.9 -15.55 8.65 -15.4 7.9 -15.55 6.7 -14.25 5.25 -13.4 4.0 -15.05 Q4.45 -15.75 4.15 -16.5 L4.3 -16.55 Q5.45 -16.7 6.45 -17.45 7.3 -18.15 7.55 -18.8 8.05 -20.25 7.4 -22.4 6.85 -24.15 6.15 -24.9 L5.95 -24.8 5.25 -26.35 4.35 -27.2 Q3.5 -27.85 2.3 -28.1 0.75 -28.4 -1.05 -28.05 -4.35 -27.45 -5.2 -23.7 -5.75 -20.75 -4.2 -18.4 L-5.0 -17.9 Q-6.5 -19.25 -7.3 -20.6 L-7.45 -20.7 -7.6 -20.7 -7.7 -20.6 -9.1 -17.8 -9.9 -15.95 -10.85 -13.3 Q-11.25 -11.7 -10.95 -10.5 -10.75 -9.45 -9.95 -8.45 L-9.95 -8.4 Q-7.95 -6.75 -5.6 -8.15 -4.85 -8.55 -3.7 -10.15 L-3.35 -10.55 -2.4 -7.45 -2.3 -7.35 -3.3 -7.05 -3.35 -6.1 -6.65 -0.6 Q-6.85 -0.35 -5.4 -0.15 L-2.0 0.15 Q3.1 0.35 3.65 -0.4 L-1.15 -2.25 -1.05 -5.4 -0.5 -6.15 0.5 -7.15 1.4 -9.25 0.9 -9.9 -0.6 -8.75 -1.15 -7.8 -1.75 -11.45 -1.7 -11.35 2.2 -9.35 2.6 -9.3 2.7 -7.65 0.9 -2.25 Q1.55 -1.3 4.1 -0.95 6.7 -0.55 9.4 -1.0 L11.0 -1.55 Q11.35 -1.95 9.55 -2.4 L5.45 -3.1 4.2 -6.9 4.9 -7.95 4.55 -10.65 3.55 -11.0 3.35 -10.2 -0.45 -12.7 0.85 -14.0 1.2 -13.75 2.85 -14.0 4.9 -11.6 4.95 -11.6 5.65 -10.65 7.95 -10.7 7.45 -9.35 8.75 -8.7 9.75 -10.2 10.4 -9.9 13.7 -13.0 12.15 -13.8 12.25 -13.95 14.5 -12.65 15.2 -13.35 14.25 -13.5 13.65 -13.9 21.4 -26.0 21.15 -33.75 M11.85 -12.4 L11.45 -12.8 11.4 -12.7 11.85 -12.4 Z" fill="none" stroke="#000000" stroke-linecap="round" stroke-linejoin="round" stroke-width="1.0"/>
  </g>
</svg>
